<svg xmlns="http://www.w3.org/2000/svg" xmlns:xlink="http://www.w3.org/1999/xlink" id="Layer_1" x="0" y="0" version="1.1" viewBox="0 0 225 225" xml:space="preserve" style="enable-background:new 0 0 225 225"><style type="text/css">.st0,.st1{fill:none;stroke:#000;stroke-linecap:square}.st0{stroke-width:15;stroke-miterlimit:3}.st1{stroke-width:17.95;stroke-linejoin:round}</style><g><g transform="matrix( 1, 0, 0, 1, 0,0)"><path id="Layer0_0_1_STROKES" d="M162.6,90.5l26.9-11.2 M167.9,115.8h19.6 M149.9,69.3l11.6-11.7" class="st0"/></g><g transform="matrix( 1, 0, 0, 1, 0,0)"><path id="Layer0_0_2_STROKES" d="M143.5,144.4h-109l78-78" class="st1"/></g><g transform="matrix( 1, 0, 0, 1, 0,0)"><g id="Layer0_0_STROKES_1_FILL"><path d="M81.4,151.8l0,0.3l-0.2,2.7l0,0.2v0.2l-0.4,2.6v0.2l-0.5,2.7l-2.4,8.9l-1.8,4.6l-0.1,0.1l0.1,0.1l5.3-2.9l5.9-4l6.7-5.5 l10.6-10.1l-22.2-10.9L81.4,151.8z"/></g></g></g></svg>